<mxfile host="b70dcb35-13fe-4927-8c48-3fa19f9ef89f" modified="2020-09-13T02:17:42.270Z" agent="5.0 (Macintosh; Intel Mac OS X 10_14_4) AppleWebKit/537.36 (KHTML, like Gecko) Code/1.48.2 Chrome/78.0.3904.130 Electron/7.3.2 Safari/537.36" etag="yc_elvkunLHGx0o63VfQ" version="13.1.3">
    <diagram id="6hGFLwfOUW9BJ-s0fimq" name="Page-1">
        <mxGraphModel dx="843" dy="1804" grid="1" gridSize="10" guides="1" tooltips="1" connect="1" arrows="1" fold="1" page="1" pageScale="1" pageWidth="827" pageHeight="1169" background="none" math="0" shadow="1">
            <root>
                <mxCell id="0"/>
                <mxCell id="1" parent="0"/>
                <mxCell id="2" value="" style="shape=ext;double=0;rounded=0;whiteSpace=wrap;html=1;fillColor=none;strokeColor=#F0F0F0;strokeWidth=1;glass=0;" vertex="1" parent="1">
                    <mxGeometry x="120" y="-1080" width="520" height="40" as="geometry"/>
                </mxCell>
                <mxCell id="8" value="" style="line;strokeWidth=2;direction=south;html=1;rounded=0;glass=0;fillColor=none;" vertex="1" parent="1">
                    <mxGeometry x="156" y="-1080" width="10" height="40" as="geometry"/>
                </mxCell>
                <mxCell id="9" value="" style="line;strokeWidth=2;direction=south;html=1;rounded=0;glass=0;fillColor=none;" vertex="1" parent="1">
                    <mxGeometry x="196" y="-1080" width="10" height="40" as="geometry"/>
                </mxCell>
                <mxCell id="10" value="" style="line;strokeWidth=2;direction=south;html=1;rounded=0;glass=0;fillColor=none;" vertex="1" parent="1">
                    <mxGeometry x="196" y="-1080" width="94" height="40" as="geometry"/>
                </mxCell>
                <mxCell id="11" value="" style="line;strokeWidth=2;direction=south;html=1;rounded=0;glass=0;fillColor=none;" vertex="1" parent="1">
                    <mxGeometry x="280" y="-1080" width="10" height="40" as="geometry"/>
                </mxCell>
                <mxCell id="12" value="" style="line;strokeWidth=2;direction=south;html=1;rounded=0;glass=0;fillColor=none;" vertex="1" parent="1">
                    <mxGeometry x="320" y="-1080" width="10" height="40" as="geometry"/>
                </mxCell>
                <mxCell id="13" value="" style="line;strokeWidth=2;direction=south;html=1;rounded=0;glass=0;fillColor=none;" vertex="1" parent="1">
                    <mxGeometry x="360" y="-1080" width="10" height="40" as="geometry"/>
                </mxCell>
                <mxCell id="14" value="" style="line;strokeWidth=2;direction=south;html=1;rounded=0;glass=0;fillColor=none;" vertex="1" parent="1">
                    <mxGeometry x="400" y="-1080" width="10" height="40" as="geometry"/>
                </mxCell>
                <mxCell id="15" value="" style="line;strokeWidth=2;direction=south;html=1;rounded=0;glass=0;fillColor=none;" vertex="1" parent="1">
                    <mxGeometry x="440" y="-1080" width="10" height="40" as="geometry"/>
                </mxCell>
                <mxCell id="16" value="" style="line;strokeWidth=2;direction=south;html=1;rounded=0;glass=0;fillColor=none;" vertex="1" parent="1">
                    <mxGeometry x="350" y="-1080" width="274" height="40" as="geometry"/>
                </mxCell>
                <mxCell id="17" value="" style="line;strokeWidth=2;direction=south;html=1;rounded=0;glass=0;fillColor=none;" vertex="1" parent="1">
                    <mxGeometry x="520" y="-1080" width="10" height="40" as="geometry"/>
                </mxCell>
                <mxCell id="18" value="" style="line;strokeWidth=2;direction=south;html=1;rounded=0;glass=0;fillColor=none;" vertex="1" parent="1">
                    <mxGeometry x="560" y="-1080" width="10" height="40" as="geometry"/>
                </mxCell>
                <mxCell id="19" value="" style="line;strokeWidth=2;direction=south;html=1;rounded=0;glass=0;fillColor=none;" vertex="1" parent="1">
                    <mxGeometry x="600" y="-1080" width="10" height="40" as="geometry"/>
                </mxCell>
                <mxCell id="20" value="0x01&lt;br&gt;" style="text;html=1;align=center;verticalAlign=middle;resizable=0;points=[];autosize=1;" vertex="1" parent="1">
                    <mxGeometry x="123" y="-1070" width="40" height="20" as="geometry"/>
                </mxCell>
                <mxCell id="21" value="0x02" style="text;html=1;align=center;verticalAlign=middle;resizable=0;points=[];autosize=1;" vertex="1" parent="1">
                    <mxGeometry x="162" y="-1070" width="40" height="20" as="geometry"/>
                </mxCell>
                <mxCell id="22" value="0x03" style="text;html=1;align=center;verticalAlign=middle;resizable=0;points=[];autosize=1;" vertex="1" parent="1">
                    <mxGeometry x="202" y="-1070" width="40" height="20" as="geometry"/>
                </mxCell>
                <mxCell id="23" value="0x04" style="text;html=1;align=center;verticalAlign=middle;resizable=0;points=[];autosize=1;" vertex="1" parent="1">
                    <mxGeometry x="242" y="-1070" width="40" height="20" as="geometry"/>
                </mxCell>
                <mxCell id="24" value="0x05" style="text;html=1;align=center;verticalAlign=middle;resizable=0;points=[];autosize=1;" vertex="1" parent="1">
                    <mxGeometry x="283" y="-1070" width="40" height="20" as="geometry"/>
                </mxCell>
                <mxCell id="25" value="0x06" style="text;html=1;align=center;verticalAlign=middle;resizable=0;points=[];autosize=1;" vertex="1" parent="1">
                    <mxGeometry x="323" y="-1070" width="40" height="20" as="geometry"/>
                </mxCell>
                <mxCell id="26" value="0x07" style="text;html=1;align=center;verticalAlign=middle;resizable=0;points=[];autosize=1;" vertex="1" parent="1">
                    <mxGeometry x="363" y="-1070" width="40" height="20" as="geometry"/>
                </mxCell>
                <mxCell id="27" value="0x11" style="text;html=1;align=center;verticalAlign=middle;resizable=0;points=[];autosize=1;" vertex="1" parent="1">
                    <mxGeometry x="520" y="-1070" width="40" height="20" as="geometry"/>
                </mxCell>
                <mxCell id="28" value="0x12" style="text;html=1;align=center;verticalAlign=middle;resizable=0;points=[];autosize=1;" vertex="1" parent="1">
                    <mxGeometry x="560" y="-1070" width="40" height="20" as="geometry"/>
                </mxCell>
                <mxCell id="29" value="0x13" style="text;html=1;align=center;verticalAlign=middle;resizable=0;points=[];autosize=1;" vertex="1" parent="1">
                    <mxGeometry x="600" y="-1070" width="40" height="20" as="geometry"/>
                </mxCell>
                <mxCell id="30" value="0x10" style="text;html=1;align=center;verticalAlign=middle;resizable=0;points=[];autosize=1;" vertex="1" parent="1">
                    <mxGeometry x="484" y="-1070" width="40" height="20" as="geometry"/>
                </mxCell>
                <mxCell id="31" value="0x09" style="text;html=1;align=center;verticalAlign=middle;resizable=0;points=[];autosize=1;" vertex="1" parent="1">
                    <mxGeometry x="444" y="-1070" width="40" height="20" as="geometry"/>
                </mxCell>
                <mxCell id="32" value="0x08" style="text;html=1;align=center;verticalAlign=middle;resizable=0;points=[];autosize=1;" vertex="1" parent="1">
                    <mxGeometry x="404" y="-1070" width="40" height="20" as="geometry"/>
                </mxCell>
                <mxCell id="37" style="edgeStyle=orthogonalEdgeStyle;rounded=0;orthogonalLoop=1;jettySize=auto;html=1;fontSize=22;" edge="1" parent="1" source="33">
                    <mxGeometry relative="1" as="geometry">
                        <mxPoint x="297" y="-1038" as="targetPoint"/>
                    </mxGeometry>
                </mxCell>
                <mxCell id="33" value="p" style="text;html=1;align=center;verticalAlign=middle;resizable=0;points=[];autosize=1;strokeWidth=3;labelBackgroundColor=none;fontStyle=0;fontSize=22;" vertex="1" parent="1">
                    <mxGeometry x="282" y="-970" width="30" height="30" as="geometry"/>
                </mxCell>
                <mxCell id="38" value="" style="shape=crossbar;whiteSpace=wrap;html=1;rounded=1;glass=0;labelBackgroundColor=none;strokeColor=#F0F0F0;strokeWidth=3;fillColor=none;fontSize=22;" vertex="1" parent="1">
                    <mxGeometry x="290" y="-1100" width="150" height="20" as="geometry"/>
                </mxCell>
                <mxCell id="39" value="int" style="text;html=1;align=center;verticalAlign=middle;resizable=0;points=[];autosize=1;fontSize=22;" vertex="1" parent="1">
                    <mxGeometry x="350" y="-1130" width="40" height="30" as="geometry"/>
                </mxCell>
                <mxCell id="41" style="edgeStyle=orthogonalEdgeStyle;rounded=0;orthogonalLoop=1;jettySize=auto;html=1;entryX=0.729;entryY=1.05;entryDx=0;entryDy=0;entryPerimeter=0;fontSize=22;" edge="1" parent="1" source="40" target="2">
                    <mxGeometry relative="1" as="geometry"/>
                </mxCell>
                <mxCell id="40" value="c" style="text;html=1;align=center;verticalAlign=middle;resizable=0;points=[];autosize=1;strokeWidth=3;labelBackgroundColor=none;fontStyle=0;fontSize=22;" vertex="1" parent="1">
                    <mxGeometry x="484" y="-970" width="30" height="30" as="geometry"/>
                </mxCell>
                <mxCell id="42" value="" style="shape=crossbar;whiteSpace=wrap;html=1;rounded=1;glass=0;labelBackgroundColor=none;strokeColor=#F0F0F0;strokeWidth=3;fillColor=none;fontSize=22;" vertex="1" parent="1">
                    <mxGeometry x="490" y="-1100" width="30" height="20" as="geometry"/>
                </mxCell>
                <mxCell id="43" value="char" style="text;html=1;align=center;verticalAlign=middle;resizable=0;points=[];autosize=1;fontSize=22;" vertex="1" parent="1">
                    <mxGeometry x="475" y="-1130" width="60" height="30" as="geometry"/>
                </mxCell>
            </root>
        </mxGraphModel>
    </diagram>
</mxfile>